<svg xmlns="http://www.w3.org/2000/svg" viewBox="0 0 675 394" width="675" height="394" font-family="system-ui,-apple-system,Segoe UI,sans-serif">
<rect width="675" height="394" fill="#fbfaf7"/>
<text x="18" y="24" font-size="15" font-weight="600" fill="#1a1a1a">dramblast lookup path: what each change is worth</text>
<text x="18" y="42" font-size="12" fill="#5a5a5a">TSC ticks per packet, lower is better; 9 repeats, interleaved</text>
<line x1="219.0" y1="46" x2="219.0" y2="316" stroke="#e0ddd6" stroke-width="1"/>
<text x="219.0" y="40" font-size="11" fill="#5a5a5a" text-anchor="middle">0</text>
<line x1="292.3" y1="46" x2="292.3" y2="316" stroke="#e0ddd6" stroke-width="1"/>
<text x="292.3" y="40" font-size="11" fill="#5a5a5a" text-anchor="middle">10</text>
<line x1="365.6" y1="46" x2="365.6" y2="316" stroke="#e0ddd6" stroke-width="1"/>
<text x="365.6" y="40" font-size="11" fill="#5a5a5a" text-anchor="middle">20</text>
<line x1="439.0" y1="46" x2="439.0" y2="316" stroke="#e0ddd6" stroke-width="1"/>
<text x="439.0" y="40" font-size="11" fill="#5a5a5a" text-anchor="middle">30</text>
<line x1="512.3" y1="46" x2="512.3" y2="316" stroke="#e0ddd6" stroke-width="1"/>
<text x="512.3" y="40" font-size="11" fill="#5a5a5a" text-anchor="middle">40</text>
<line x1="585.6" y1="46" x2="585.6" y2="316" stroke="#e0ddd6" stroke-width="1"/>
<text x="585.6" y="40" font-size="11" fill="#5a5a5a" text-anchor="middle">50</text>
<text x="209" y="66.5" font-size="13" fill="#1a1a1a" text-anchor="end">as shipped</text>
<rect x="219.0" y="54.0" width="388.1" height="16" fill="#bb551c" fill-opacity="0.85"/>
<circle cx="617.1" cy="62.0" r="2.4" fill="#1a1a1a" fill-opacity="0.9"/>
<circle cx="606.4" cy="62.0" r="2.4" fill="#1a1a1a" fill-opacity="0.9"/>
<circle cx="604.2" cy="62.0" r="2.4" fill="#1a1a1a" fill-opacity="0.9"/>
<circle cx="607.1" cy="62.0" r="2.4" fill="#1a1a1a" fill-opacity="0.9"/>
<circle cx="608.2" cy="62.0" r="2.4" fill="#1a1a1a" fill-opacity="0.9"/>
<circle cx="604.5" cy="62.0" r="2.4" fill="#1a1a1a" fill-opacity="0.9"/>
<circle cx="614.6" cy="62.0" r="2.4" fill="#1a1a1a" fill-opacity="0.9"/>
<circle cx="607.4" cy="62.0" r="2.4" fill="#1a1a1a" fill-opacity="0.9"/>
<circle cx="607.0" cy="62.0" r="2.4" fill="#1a1a1a" fill-opacity="0.9"/>
<text x="614.1" y="66.5" font-size="11" fill="#5a5a5a">52.9</text>
<text x="209" y="100.5" font-size="13" fill="#1a1a1a" text-anchor="end">+ find-mask fix</text>
<rect x="219.0" y="88.0" width="261.4" height="16" fill="#12707f" fill-opacity="0.85"/>
<circle cx="479.3" cy="96.0" r="2.4" fill="#1a1a1a" fill-opacity="0.9"/>
<circle cx="478.8" cy="96.0" r="2.4" fill="#1a1a1a" fill-opacity="0.9"/>
<circle cx="480.4" cy="96.0" r="2.4" fill="#1a1a1a" fill-opacity="0.9"/>
<circle cx="478.9" cy="96.0" r="2.4" fill="#1a1a1a" fill-opacity="0.9"/>
<circle cx="479.7" cy="96.0" r="2.4" fill="#1a1a1a" fill-opacity="0.9"/>
<circle cx="492.2" cy="96.0" r="2.4" fill="#1a1a1a" fill-opacity="0.9"/>
<circle cx="481.4" cy="96.0" r="2.4" fill="#1a1a1a" fill-opacity="0.9"/>
<circle cx="481.4" cy="96.0" r="2.4" fill="#1a1a1a" fill-opacity="0.9"/>
<circle cx="480.4" cy="96.0" r="2.4" fill="#1a1a1a" fill-opacity="0.9"/>
<text x="487.4" y="100.5" font-size="11" fill="#5a5a5a">35.6</text>
<text x="209" y="134.5" font-size="13" fill="#1a1a1a" text-anchor="end">+ hoisted result buffer</text>
<rect x="219.0" y="122.0" width="222.5" height="16" fill="#12707f" fill-opacity="0.85"/>
<circle cx="440.7" cy="130.0" r="2.4" fill="#1a1a1a" fill-opacity="0.9"/>
<circle cx="441.5" cy="130.0" r="2.4" fill="#1a1a1a" fill-opacity="0.9"/>
<circle cx="445.6" cy="130.0" r="2.4" fill="#1a1a1a" fill-opacity="0.9"/>
<circle cx="440.7" cy="130.0" r="2.4" fill="#1a1a1a" fill-opacity="0.9"/>
<circle cx="442.0" cy="130.0" r="2.4" fill="#1a1a1a" fill-opacity="0.9"/>
<circle cx="445.1" cy="130.0" r="2.4" fill="#1a1a1a" fill-opacity="0.9"/>
<circle cx="441.4" cy="130.0" r="2.4" fill="#1a1a1a" fill-opacity="0.9"/>
<circle cx="442.1" cy="130.0" r="2.4" fill="#1a1a1a" fill-opacity="0.9"/>
<circle cx="441.3" cy="130.0" r="2.4" fill="#1a1a1a" fill-opacity="0.9"/>
<text x="448.5" y="134.5" font-size="11" fill="#5a5a5a">30.3</text>
<text x="209" y="168.5" font-size="13" fill="#1a1a1a" text-anchor="end">+ prefetcht1 (vs t2)</text>
<rect x="219.0" y="156.0" width="261.1" height="16" fill="#4a7a3a" fill-opacity="0.85"/>
<circle cx="478.2" cy="164.0" r="2.4" fill="#1a1a1a" fill-opacity="0.9"/>
<circle cx="489.9" cy="164.0" r="2.4" fill="#1a1a1a" fill-opacity="0.9"/>
<circle cx="478.4" cy="164.0" r="2.4" fill="#1a1a1a" fill-opacity="0.9"/>
<circle cx="484.5" cy="164.0" r="2.4" fill="#1a1a1a" fill-opacity="0.9"/>
<circle cx="479.0" cy="164.0" r="2.4" fill="#1a1a1a" fill-opacity="0.9"/>
<circle cx="481.1" cy="164.0" r="2.4" fill="#1a1a1a" fill-opacity="0.9"/>
<circle cx="502.5" cy="164.0" r="2.4" fill="#1a1a1a" fill-opacity="0.9"/>
<circle cx="479.7" cy="164.0" r="2.4" fill="#1a1a1a" fill-opacity="0.9"/>
<circle cx="480.1" cy="164.0" r="2.4" fill="#1a1a1a" fill-opacity="0.9"/>
<text x="487.1" y="168.5" font-size="11" fill="#5a5a5a">35.6</text>
<text x="209" y="202.5" font-size="13" fill="#1a1a1a" text-anchor="end">+ prefetcht0</text>
<rect x="219.0" y="190.0" width="253.5" height="16" fill="#4a7a3a" fill-opacity="0.85"/>
<circle cx="471.5" cy="198.0" r="2.4" fill="#1a1a1a" fill-opacity="0.9"/>
<circle cx="471.9" cy="198.0" r="2.4" fill="#1a1a1a" fill-opacity="0.9"/>
<circle cx="475.2" cy="198.0" r="2.4" fill="#1a1a1a" fill-opacity="0.9"/>
<circle cx="472.7" cy="198.0" r="2.4" fill="#1a1a1a" fill-opacity="0.9"/>
<circle cx="474.1" cy="198.0" r="2.4" fill="#1a1a1a" fill-opacity="0.9"/>
<circle cx="496.2" cy="198.0" r="2.4" fill="#1a1a1a" fill-opacity="0.9"/>
<circle cx="472.5" cy="198.0" r="2.4" fill="#1a1a1a" fill-opacity="0.9"/>
<circle cx="472.4" cy="198.0" r="2.4" fill="#1a1a1a" fill-opacity="0.9"/>
<circle cx="472.0" cy="198.0" r="2.4" fill="#1a1a1a" fill-opacity="0.9"/>
<text x="479.5" y="202.5" font-size="11" fill="#5a5a5a">34.6</text>
<text x="209" y="236.5" font-size="13" fill="#1a1a1a" text-anchor="end">+ loop state in locals</text>
<rect x="219.0" y="224.0" width="258.5" height="16" fill="#4a7a3a" fill-opacity="0.85"/>
<circle cx="477.0" cy="232.0" r="2.4" fill="#1a1a1a" fill-opacity="0.9"/>
<circle cx="476.4" cy="232.0" r="2.4" fill="#1a1a1a" fill-opacity="0.9"/>
<circle cx="477.8" cy="232.0" r="2.4" fill="#1a1a1a" fill-opacity="0.9"/>
<circle cx="479.7" cy="232.0" r="2.4" fill="#1a1a1a" fill-opacity="0.9"/>
<circle cx="476.6" cy="232.0" r="2.4" fill="#1a1a1a" fill-opacity="0.9"/>
<circle cx="478.0" cy="232.0" r="2.4" fill="#1a1a1a" fill-opacity="0.9"/>
<circle cx="477.5" cy="232.0" r="2.4" fill="#1a1a1a" fill-opacity="0.9"/>
<circle cx="476.3" cy="232.0" r="2.4" fill="#1a1a1a" fill-opacity="0.9"/>
<circle cx="486.4" cy="232.0" r="2.4" fill="#1a1a1a" fill-opacity="0.9"/>
<text x="484.5" y="236.5" font-size="11" fill="#5a5a5a">35.3</text>
<text x="209" y="270.5" font-size="13" fill="#1a1a1a" text-anchor="end">+ that, and hoisted buffer</text>
<rect x="219.0" y="258.0" width="218.3" height="16" fill="#4a7a3a" fill-opacity="0.85"/>
<circle cx="436.9" cy="266.0" r="2.4" fill="#1a1a1a" fill-opacity="0.9"/>
<circle cx="460.5" cy="266.0" r="2.4" fill="#1a1a1a" fill-opacity="0.9"/>
<circle cx="436.9" cy="266.0" r="2.4" fill="#1a1a1a" fill-opacity="0.9"/>
<circle cx="437.3" cy="266.0" r="2.4" fill="#1a1a1a" fill-opacity="0.9"/>
<circle cx="436.9" cy="266.0" r="2.4" fill="#1a1a1a" fill-opacity="0.9"/>
<circle cx="437.6" cy="266.0" r="2.4" fill="#1a1a1a" fill-opacity="0.9"/>
<circle cx="439.7" cy="266.0" r="2.4" fill="#1a1a1a" fill-opacity="0.9"/>
<circle cx="446.3" cy="266.0" r="2.4" fill="#1a1a1a" fill-opacity="0.9"/>
<circle cx="436.6" cy="266.0" r="2.4" fill="#1a1a1a" fill-opacity="0.9"/>
<text x="444.3" y="270.5" font-size="11" fill="#5a5a5a">29.8</text>
<text x="209" y="304.5" font-size="13" fill="#1a1a1a" text-anchor="end">+ no vector spill on hit</text>
<rect x="219.0" y="292.0" width="270.0" height="16" fill="#4a7a3a" fill-opacity="0.85"/>
<circle cx="494.4" cy="300.0" r="2.4" fill="#1a1a1a" fill-opacity="0.9"/>
<circle cx="489.5" cy="300.0" r="2.4" fill="#1a1a1a" fill-opacity="0.9"/>
<circle cx="487.7" cy="300.0" r="2.4" fill="#1a1a1a" fill-opacity="0.9"/>
<circle cx="487.4" cy="300.0" r="2.4" fill="#1a1a1a" fill-opacity="0.9"/>
<circle cx="487.6" cy="300.0" r="2.4" fill="#1a1a1a" fill-opacity="0.9"/>
<circle cx="490.7" cy="300.0" r="2.4" fill="#1a1a1a" fill-opacity="0.9"/>
<circle cx="489.0" cy="300.0" r="2.4" fill="#1a1a1a" fill-opacity="0.9"/>
<circle cx="485.9" cy="300.0" r="2.4" fill="#1a1a1a" fill-opacity="0.9"/>
<circle cx="511.3" cy="300.0" r="2.4" fill="#1a1a1a" fill-opacity="0.9"/>
<text x="496.0" y="304.5" font-size="11" fill="#5a5a5a">36.8</text>
<rect x="18.0" y="330.0" width="10" height="10" fill="#bb551c"/>
<text x="33.0" y="339.0" font-size="11" fill="#5a5a5a">as shipped</text>
<rect x="177.8" y="330.0" width="10" height="10" fill="#12707f"/>
<text x="192.8" y="339.0" font-size="11" fill="#5a5a5a">confirmed win</text>
<rect x="337.5" y="330.0" width="10" height="10" fill="#4a7a3a"/>
<text x="352.5" y="339.0" font-size="11" fill="#5a5a5a">candidate, not confirmed</text>
<circle cx="502.2" cy="335.0" r="2.4" fill="#1a1a1a"/>
<text x="512.2" y="339.0" font-size="11" fill="#5a5a5a">individual repeats</text>
<text x="18" y="356.0" font-size="11" fill="#5a5a5a">Every arm but the first also carries the find-mask fix, so each is the shipped code plus one</text>
<text x="18" y="369.0" font-size="11" fill="#5a5a5a">further change.</text>
</svg>