<svg xmlns="http://www.w3.org/2000/svg" viewBox="0 0 770 390" width="770" height="390" font-family="system-ui,-apple-system,Segoe UI,sans-serif">
<rect width="770" height="390" fill="#fbfaf7"/>
<text x="62" y="24" font-size="15" font-weight="600" fill="#1a1a1a">The find-mask fix on the rig</text>
<text x="62" y="42" font-size="12" fill="#5a5a5a">dramblast, 100 Gbps offered, matched RX burst; 3 repeats x 5 queue counts</text>
<text x="62" y="48" font-size="12" font-weight="600" fill="#1a1a1a">TSC ticks / packet</text>
<line x1="62" y1="298" x2="362" y2="298" stroke="#e0ddd6"/>
<line x1="62" y1="298.0" x2="362" y2="298.0" stroke="#e0ddd6"/>
<text x="56" y="301.0" font-size="10" fill="#5a5a5a" text-anchor="end">78</text>
<line x1="62" y1="178.0" x2="362" y2="178.0" stroke="#e0ddd6"/>
<text x="56" y="181.0" font-size="10" fill="#5a5a5a" text-anchor="end">92</text>
<line x1="62" y1="58.0" x2="362" y2="58.0" stroke="#e0ddd6"/>
<text x="56" y="61.0" font-size="10" fill="#5a5a5a" text-anchor="end">106</text>
<text x="92.0" y="313" font-size="10" fill="#5a5a5a" text-anchor="middle">1</text>
<text x="152.0" y="313" font-size="10" fill="#5a5a5a" text-anchor="middle">2</text>
<text x="212.0" y="313" font-size="10" fill="#5a5a5a" text-anchor="middle">3</text>
<text x="272.0" y="313" font-size="10" fill="#5a5a5a" text-anchor="middle">4</text>
<text x="332.0" y="313" font-size="10" fill="#5a5a5a" text-anchor="middle">5</text>
<text x="212.0" y="330" font-size="11" fill="#5a5a5a" text-anchor="middle">queue pairs</text>
<line x1="92.0" y1="125.1" x2="92.0" y2="266.2" stroke="#5a5a5a" stroke-width="1" stroke-opacity="0.45"/>
<circle cx="92.0" cy="125.1" r="3.2" fill="#bb551c"/>
<circle cx="92.0" cy="266.2" r="3.2" fill="#12707f"/>
<line x1="212.0" y1="107.4" x2="212.0" y2="257.4" stroke="#5a5a5a" stroke-width="1" stroke-opacity="0.45"/>
<circle cx="212.0" cy="107.4" r="3.2" fill="#bb551c"/>
<circle cx="212.0" cy="257.4" r="3.2" fill="#12707f"/>
<line x1="272.0" y1="116.2" x2="272.0" y2="257.4" stroke="#5a5a5a" stroke-width="1" stroke-opacity="0.45"/>
<circle cx="272.0" cy="116.2" r="3.2" fill="#bb551c"/>
<circle cx="272.0" cy="257.4" r="3.2" fill="#12707f"/>
<line x1="332.0" y1="98.6" x2="332.0" y2="222.1" stroke="#5a5a5a" stroke-width="1" stroke-opacity="0.45"/>
<circle cx="332.0" cy="98.6" r="3.2" fill="#bb551c"/>
<circle cx="332.0" cy="222.1" r="3.2" fill="#12707f"/>
<line x1="92.0" y1="125.1" x2="92.0" y2="266.2" stroke="#5a5a5a" stroke-width="1" stroke-opacity="0.45"/>
<circle cx="92.0" cy="125.1" r="3.2" fill="#bb551c"/>
<circle cx="92.0" cy="266.2" r="3.2" fill="#12707f"/>
<line x1="152.0" y1="107.4" x2="152.0" y2="239.8" stroke="#5a5a5a" stroke-width="1" stroke-opacity="0.45"/>
<circle cx="152.0" cy="107.4" r="3.2" fill="#bb551c"/>
<circle cx="152.0" cy="239.8" r="3.2" fill="#12707f"/>
<line x1="212.0" y1="107.4" x2="212.0" y2="248.6" stroke="#5a5a5a" stroke-width="1" stroke-opacity="0.45"/>
<circle cx="212.0" cy="107.4" r="3.2" fill="#bb551c"/>
<circle cx="212.0" cy="248.6" r="3.2" fill="#12707f"/>
<line x1="272.0" y1="116.2" x2="272.0" y2="257.4" stroke="#5a5a5a" stroke-width="1" stroke-opacity="0.45"/>
<circle cx="272.0" cy="116.2" r="3.2" fill="#bb551c"/>
<circle cx="272.0" cy="257.4" r="3.2" fill="#12707f"/>
<line x1="332.0" y1="89.8" x2="332.0" y2="230.9" stroke="#5a5a5a" stroke-width="1" stroke-opacity="0.45"/>
<circle cx="332.0" cy="89.8" r="3.2" fill="#bb551c"/>
<circle cx="332.0" cy="230.9" r="3.2" fill="#12707f"/>
<line x1="92.0" y1="125.1" x2="92.0" y2="266.2" stroke="#5a5a5a" stroke-width="1" stroke-opacity="0.45"/>
<circle cx="92.0" cy="125.1" r="3.2" fill="#bb551c"/>
<circle cx="92.0" cy="266.2" r="3.2" fill="#12707f"/>
<line x1="152.0" y1="98.6" x2="152.0" y2="239.8" stroke="#5a5a5a" stroke-width="1" stroke-opacity="0.45"/>
<circle cx="152.0" cy="98.6" r="3.2" fill="#bb551c"/>
<circle cx="152.0" cy="239.8" r="3.2" fill="#12707f"/>
<line x1="212.0" y1="107.4" x2="212.0" y2="248.6" stroke="#5a5a5a" stroke-width="1" stroke-opacity="0.45"/>
<circle cx="212.0" cy="107.4" r="3.2" fill="#bb551c"/>
<circle cx="212.0" cy="248.6" r="3.2" fill="#12707f"/>
<line x1="272.0" y1="116.2" x2="272.0" y2="257.4" stroke="#5a5a5a" stroke-width="1" stroke-opacity="0.45"/>
<circle cx="272.0" cy="116.2" r="3.2" fill="#bb551c"/>
<circle cx="272.0" cy="257.4" r="3.2" fill="#12707f"/>
<line x1="332.0" y1="98.6" x2="332.0" y2="204.5" stroke="#5a5a5a" stroke-width="1" stroke-opacity="0.45"/>
<circle cx="332.0" cy="98.6" r="3.2" fill="#bb551c"/>
<circle cx="332.0" cy="204.5" r="3.2" fill="#12707f"/>
<text x="408" y="48" font-size="12" font-weight="600" fill="#1a1a1a">Mpps forwarded</text>
<line x1="408" y1="298" x2="708" y2="298" stroke="#e0ddd6"/>
<line x1="408" y1="298.0" x2="708" y2="298.0" stroke="#e0ddd6"/>
<text x="402" y="301.0" font-size="10" fill="#5a5a5a" text-anchor="end">3</text>
<line x1="408" y1="178.0" x2="708" y2="178.0" stroke="#e0ddd6"/>
<text x="402" y="181.0" font-size="10" fill="#5a5a5a" text-anchor="end">51</text>
<line x1="408" y1="58.0" x2="708" y2="58.0" stroke="#e0ddd6"/>
<text x="402" y="61.0" font-size="10" fill="#5a5a5a" text-anchor="end">100</text>
<text x="438.0" y="313" font-size="10" fill="#5a5a5a" text-anchor="middle">1</text>
<text x="498.0" y="313" font-size="10" fill="#5a5a5a" text-anchor="middle">2</text>
<text x="558.0" y="313" font-size="10" fill="#5a5a5a" text-anchor="middle">3</text>
<text x="618.0" y="313" font-size="10" fill="#5a5a5a" text-anchor="middle">4</text>
<text x="678.0" y="313" font-size="10" fill="#5a5a5a" text-anchor="middle">5</text>
<text x="558.0" y="330" font-size="11" fill="#5a5a5a" text-anchor="middle">queue pairs</text>
<line x1="438.0" y1="266.2" x2="438.0" y2="260.4" stroke="#5a5a5a" stroke-width="1" stroke-opacity="0.45"/>
<circle cx="438.0" cy="266.2" r="3.2" fill="#bb551c"/>
<circle cx="438.0" cy="260.4" r="3.2" fill="#12707f"/>
<line x1="558.0" y1="190.0" x2="558.0" y2="173.1" stroke="#5a5a5a" stroke-width="1" stroke-opacity="0.45"/>
<circle cx="558.0" cy="190.0" r="3.2" fill="#bb551c"/>
<circle cx="558.0" cy="173.1" r="3.2" fill="#12707f"/>
<line x1="618.0" y1="150.5" x2="618.0" y2="128.5" stroke="#5a5a5a" stroke-width="1" stroke-opacity="0.45"/>
<circle cx="618.0" cy="150.5" r="3.2" fill="#bb551c"/>
<circle cx="618.0" cy="128.5" r="3.2" fill="#12707f"/>
<line x1="678.0" y1="113.4" x2="678.0" y2="91.5" stroke="#5a5a5a" stroke-width="1" stroke-opacity="0.45"/>
<circle cx="678.0" cy="113.4" r="3.2" fill="#bb551c"/>
<circle cx="678.0" cy="91.5" r="3.2" fill="#12707f"/>
<line x1="438.0" y1="266.2" x2="438.0" y2="260.4" stroke="#5a5a5a" stroke-width="1" stroke-opacity="0.45"/>
<circle cx="438.0" cy="266.2" r="3.2" fill="#bb551c"/>
<circle cx="438.0" cy="260.4" r="3.2" fill="#12707f"/>
<line x1="498.0" y1="228.8" x2="498.0" y2="218.9" stroke="#5a5a5a" stroke-width="1" stroke-opacity="0.45"/>
<circle cx="498.0" cy="228.8" r="3.2" fill="#bb551c"/>
<circle cx="498.0" cy="218.9" r="3.2" fill="#12707f"/>
<line x1="558.0" y1="189.5" x2="558.0" y2="173.5" stroke="#5a5a5a" stroke-width="1" stroke-opacity="0.45"/>
<circle cx="558.0" cy="189.5" r="3.2" fill="#bb551c"/>
<circle cx="558.0" cy="173.5" r="3.2" fill="#12707f"/>
<line x1="618.0" y1="149.9" x2="618.0" y2="129.0" stroke="#5a5a5a" stroke-width="1" stroke-opacity="0.45"/>
<circle cx="618.0" cy="149.9" r="3.2" fill="#bb551c"/>
<circle cx="618.0" cy="129.0" r="3.2" fill="#12707f"/>
<line x1="678.0" y1="114.7" x2="678.0" y2="89.8" stroke="#5a5a5a" stroke-width="1" stroke-opacity="0.45"/>
<circle cx="678.0" cy="114.7" r="3.2" fill="#bb551c"/>
<circle cx="678.0" cy="89.8" r="3.2" fill="#12707f"/>
<line x1="438.0" y1="266.2" x2="438.0" y2="260.5" stroke="#5a5a5a" stroke-width="1" stroke-opacity="0.45"/>
<circle cx="438.0" cy="266.2" r="3.2" fill="#bb551c"/>
<circle cx="438.0" cy="260.5" r="3.2" fill="#12707f"/>
<line x1="498.0" y1="229.1" x2="498.0" y2="218.8" stroke="#5a5a5a" stroke-width="1" stroke-opacity="0.45"/>
<circle cx="498.0" cy="229.1" r="3.2" fill="#bb551c"/>
<circle cx="498.0" cy="218.8" r="3.2" fill="#12707f"/>
<line x1="558.0" y1="189.6" x2="558.0" y2="173.1" stroke="#5a5a5a" stroke-width="1" stroke-opacity="0.45"/>
<circle cx="558.0" cy="189.6" r="3.2" fill="#bb551c"/>
<circle cx="558.0" cy="173.1" r="3.2" fill="#12707f"/>
<line x1="618.0" y1="149.6" x2="618.0" y2="128.8" stroke="#5a5a5a" stroke-width="1" stroke-opacity="0.45"/>
<circle cx="618.0" cy="149.6" r="3.2" fill="#bb551c"/>
<circle cx="618.0" cy="128.8" r="3.2" fill="#12707f"/>
<line x1="678.0" y1="113.7" x2="678.0" y2="94.4" stroke="#5a5a5a" stroke-width="1" stroke-opacity="0.45"/>
<circle cx="678.0" cy="113.7" r="3.2" fill="#bb551c"/>
<circle cx="678.0" cy="94.4" r="3.2" fill="#12707f"/>
<circle cx="66.0" cy="350.0" r="3.2" fill="#bb551c"/>
<text x="76.0" y="354.0" font-size="11" fill="#5a5a5a">as shipped</text>
<circle cx="256.0" cy="350.0" r="3.2" fill="#12707f"/>
<text x="266.0" y="354.0" font-size="11" fill="#5a5a5a">find-mask fixed</text>
<text x="62" y="372.0" font-size="11" fill="#5a5a5a">Paired within each repeat at equal RX burst size: -15.57 ticks/packet and +6.23 Mpps.</text>
</svg>