<svg xmlns="http://www.w3.org/2000/svg" viewBox="0 0 1500 430" width="1500" height="430" role="img" aria-label="Three panels: page backing, allocator share, pipeline depth"><style>.ttl{font:600 15px Archivo,system-ui,sans-serif;fill:#1a1a1a}.sub{font:13px Spectral,Georgia,serif;fill:#5a5a5a}.tick{font:11.5px "IBM Plex Mono",monospace;fill:#5a5a5a}.val{font:600 12px "IBM Plex Mono",monospace;fill:#1a1a1a}.note{font:11px "IBM Plex Mono",monospace;fill:#5a5a5a}.grid{stroke:#e0ddd6;stroke-width:1}.axis{stroke:#e0ddd6;stroke-width:1.4}</style><rect width="1500" height="430" fill="#fbfaf7"/><text x="14" y="30" class="ttl">1. Page backing moves the per-packet cost</text><text x="14" y="50" class="sub">core cycles per packet, one queue, 64-packet burst</text><line x1="76" y1="368.0" x2="454" y2="368.0" class="grid"/><text x="66" y="372.0" class="tick" text-anchor="end" fill="#5a5a5a">0</text><line x1="76" y1="294.5" x2="454" y2="294.5" class="grid"/><text x="66" y="298.5" class="tick" text-anchor="end" fill="#5a5a5a">62</text><line x1="76" y1="221.0" x2="454" y2="221.0" class="grid"/><text x="66" y="225.0" class="tick" text-anchor="end" fill="#5a5a5a">124</text><line x1="76" y1="147.5" x2="454" y2="147.5" class="grid"/><text x="66" y="151.5" class="tick" text-anchor="end" fill="#5a5a5a">185</text><line x1="76" y1="74.0" x2="454" y2="74.0" class="grid"/><text x="66" y="78.0" class="tick" text-anchor="end" fill="#5a5a5a">247</text><rect x="89.9" y="251.7" width="35.3" height="116.3" fill="#12707f" rx="2"/><text x="107.5" y="243.7" class="val" text-anchor="middle">98</text><text x="107.5" y="388.0" class="tick" text-anchor="middle">dram</text><text x="107.5" y="402.0" class="tick" text-anchor="middle">1 GiB</text><rect x="152.9" y="247.0" width="35.3" height="121.0" fill="#12707f" rx="2"/><text x="170.5" y="239.0" class="val" text-anchor="middle">102</text><text x="170.5" y="388.0" class="tick" text-anchor="middle">dram</text><text x="170.5" y="402.0" class="tick" text-anchor="middle">2 MiB</text><rect x="215.9" y="229.2" width="35.3" height="138.8" fill="#12707f" rx="2"/><text x="233.5" y="221.2" class="val" text-anchor="middle">117</text><text x="233.5" y="388.0" class="tick" text-anchor="middle">dram</text><text x="233.5" y="402.0" class="tick" text-anchor="middle">4 KiB</text><rect x="278.9" y="185.3" width="35.3" height="182.7" fill="#bb551c" rx="2"/><text x="296.5" y="177.3" class="val" text-anchor="middle">154</text><text x="296.5" y="388.0" class="tick" text-anchor="middle">mag</text><text x="296.5" y="402.0" class="tick" text-anchor="middle">1 GiB</text><rect x="341.9" y="168.7" width="35.3" height="199.3" fill="#bb551c" rx="2"/><text x="359.5" y="160.7" class="val" text-anchor="middle">168</text><text x="359.5" y="388.0" class="tick" text-anchor="middle">mag</text><text x="359.5" y="402.0" class="tick" text-anchor="middle">2 MiB</text><rect x="404.9" y="118.8" width="35.3" height="249.2" fill="#bb551c" rx="2"/><text x="422.5" y="110.8" class="val" text-anchor="middle">210</text><text x="422.5" y="388.0" class="tick" text-anchor="middle">mag</text><text x="422.5" y="402.0" class="tick" text-anchor="middle">4 KiB</text><line x1="76" y1="368" x2="454" y2="368" class="axis"/><text x="514" y="30" class="ttl">2. The allocator's share of the per-burst cost</text><text x="514" y="50" class="sub">cycles per burst above the arm with no allocation</text><line x1="576" y1="368.0" x2="954" y2="368.0" class="grid"/><text x="566" y="372.0" class="tick" text-anchor="end" fill="#5a5a5a">0</text><line x1="576" y1="294.5" x2="954" y2="294.5" class="grid"/><text x="566" y="298.5" class="tick" text-anchor="end" fill="#5a5a5a">1310</text><line x1="576" y1="221.0" x2="954" y2="221.0" class="grid"/><text x="566" y="225.0" class="tick" text-anchor="end" fill="#5a5a5a">2620</text><line x1="576" y1="147.5" x2="954" y2="147.5" class="grid"/><text x="566" y="151.5" class="tick" text-anchor="end" fill="#5a5a5a">3930</text><line x1="576" y1="74.0" x2="954" y2="74.0" class="grid"/><text x="566" y="78.0" class="tick" text-anchor="end" fill="#5a5a5a">5241</text><line x1="576.0" y1="368.0" x2="954.0" y2="79.2" stroke="#5a5a5a" stroke-width="1.4" stroke-dasharray="5 4"/><text x="948.0" y="69.2" class="note" text-anchor="end">511 cycles per pair, intercept +0</text><polyline points="576.0,368.0 613.5,342.9 688.5,282.0 763.5,224.7 913.5,110.1" fill="none" stroke="#12707f" stroke-width="2.4"/><circle cx="576.0" cy="368.0" r="5" fill="#12707f" stroke="#fbfaf7" stroke-width="2"/><circle cx="613.5" cy="342.9" r="5" fill="#12707f" stroke="#fbfaf7" stroke-width="2"/><circle cx="688.5" cy="282.0" r="5" fill="#12707f" stroke="#fbfaf7" stroke-width="2"/><circle cx="763.5" cy="224.7" r="5" fill="#12707f" stroke="#fbfaf7" stroke-width="2"/><circle cx="913.5" cy="110.1" r="5" fill="#12707f" stroke="#fbfaf7" stroke-width="2"/><text x="623.5" y="346.9" class="val">447  (as shipped)</text><text x="576.0" y="388.0" class="tick" text-anchor="middle">0</text><text x="688.5" y="388.0" class="tick" text-anchor="middle">3</text><text x="763.5" y="388.0" class="tick" text-anchor="middle">5</text><text x="913.5" y="388.0" class="tick" text-anchor="middle">9</text><line x1="576" y1="368" x2="954" y2="368" class="axis"/><text x="765.0" y="412.0" class="tick" text-anchor="middle">aligned_alloc / free round trips per burst</text><text x="1014" y="30" class="ttl">3. The pipeline hides latency, it does not remove work</text><text x="1014" y="50" class="sub">at a matched 64-packet burst</text><line x1="1076" y1="368.0" x2="1454" y2="368.0" class="grid"/><text x="1066" y="372.0" class="tick" text-anchor="end" fill="#12707f">96</text><line x1="1076" y1="294.5" x2="1454" y2="294.5" class="grid"/><text x="1066" y="298.5" class="tick" text-anchor="end" fill="#12707f">104</text><line x1="1076" y1="221.0" x2="1454" y2="221.0" class="grid"/><text x="1066" y="225.0" class="tick" text-anchor="end" fill="#12707f">111</text><line x1="1076" y1="147.5" x2="1454" y2="147.5" class="grid"/><text x="1066" y="151.5" class="tick" text-anchor="end" fill="#12707f">119</text><line x1="1076" y1="74.0" x2="1454" y2="74.0" class="grid"/><text x="1066" y="78.0" class="tick" text-anchor="end" fill="#12707f">127</text><text x="1464" y="372.0" class="tick" text-anchor="start" fill="#bb551c">381</text><text x="1464" y="298.5" class="tick" text-anchor="start" fill="#bb551c">411</text><text x="1464" y="225.0" class="tick" text-anchor="start" fill="#bb551c">441</text><text x="1464" y="151.5" class="tick" text-anchor="start" fill="#bb551c">471</text><text x="1464" y="78.0" class="tick" text-anchor="start" fill="#bb551c">501</text><polyline points="1076.0,286.6 1202.0,291.7 1328.0,308.6 1454.0,326.0" fill="none" stroke="#bb551c" stroke-width="2.4" stroke-dasharray="5 4"/><circle cx="1076.0" cy="286.6" r="5" fill="#bb551c" stroke="#fbfaf7" stroke-width="2"/><circle cx="1202.0" cy="291.7" r="5" fill="#bb551c" stroke="#fbfaf7" stroke-width="2"/><circle cx="1328.0" cy="308.6" r="5" fill="#bb551c" stroke="#fbfaf7" stroke-width="2"/><circle cx="1454.0" cy="326.0" r="5" fill="#bb551c" stroke="#fbfaf7" stroke-width="2"/><polyline points="1076.0,146.4 1202.0,264.2 1328.0,308.6 1454.0,326.0" fill="none" stroke="#12707f" stroke-width="2.4"/><circle cx="1076.0" cy="146.4" r="5" fill="#12707f" stroke="#fbfaf7" stroke-width="2"/><circle cx="1202.0" cy="264.2" r="5" fill="#12707f" stroke="#fbfaf7" stroke-width="2"/><circle cx="1328.0" cy="308.6" r="5" fill="#12707f" stroke="#fbfaf7" stroke-width="2"/><circle cx="1454.0" cy="326.0" r="5" fill="#12707f" stroke="#fbfaf7" stroke-width="2"/><line x1="1076.0" y1="149.5" x2="1076.0" y2="143.4" stroke="#12707f" stroke-width="1.6"/><text x="1076.0" y="168.4" class="note" text-anchor="middle">IPC 3.48</text><text x="1076.0" y="388.0" class="tick" text-anchor="middle">8</text><line x1="1202.0" y1="267.8" x2="1202.0" y2="260.6" stroke="#12707f" stroke-width="1.6"/><text x="1202.0" y="286.2" class="note" text-anchor="middle">IPC 3.86</text><text x="1202.0" y="388.0" class="tick" text-anchor="middle">16</text><line x1="1328.0" y1="314.3" x2="1328.0" y2="303.0" stroke="#12707f" stroke-width="1.6"/><text x="1328.0" y="330.6" class="note" text-anchor="middle">IPC 3.96</text><text x="1328.0" y="388.0" class="tick" text-anchor="middle">32</text><line x1="1454.0" y1="333.2" x2="1454.0" y2="318.8" stroke="#12707f" stroke-width="1.6"/><text x="1454.0" y="348.0" class="note" text-anchor="middle">IPC 3.96</text><text x="1454.0" y="388.0" class="tick" text-anchor="middle">64</text><line x1="1076" y1="368" x2="1454" y2="368" class="axis"/><text x="1265.0" y="412.0" class="tick" text-anchor="middle">prefetch pipeline depth</text><text x="1018" y="62" class="note" fill="#12707f">cycles / packet</text><text x="1462" y="62" class="note" fill="#bb551c">instructions / packet</text></svg>
